<?xml version="1.0" encoding="utf-8"?>
<!-- Generator: Adobe Illustrator 26.3.1, SVG Export Plug-In . SVG Version: 6.00 Build 0)  -->
<svg version="1.1" id="Layer_1" xmlns="http://www.w3.org/2000/svg" xmlns:xlink="http://www.w3.org/1999/xlink" x="0px" y="0px"
	 viewBox="0 0 500 213.6" style="enable-background:new 0 0 500 213.6;" xml:space="preserve">
<style type="text/css">
	.st0{fill:url(#SVGID_1_);}
	.st1{fill:url(#SVGID_00000127002582989049555150000013702783958928749211_);}
	.st2{fill:#24437A;}
</style>
<linearGradient id="SVGID_1_" gradientUnits="userSpaceOnUse" x1="155.1073" y1="29.8714" x2="47.2866" y2="189.7221">
	<stop  offset="0.1419" style="stop-color:#D0DFE6"/>
	<stop  offset="0.1625" style="stop-color:#CDDDE4"/>
	<stop  offset="0.5531" style="stop-color:#95B5C5"/>
	<stop  offset="0.8437" style="stop-color:#729BB2"/>
	<stop  offset="1" style="stop-color:#6592AB"/>
</linearGradient>
<path class="st0" d="M92.7,183.5c-0.7-0.1-1.3-0.3-2-0.4c26-17.9,43.1-47.8,43.1-81.7V80.6l4.6,3.8l13.9-14.9l-18.5-16h-22v22v9.3
	v16.6c0,32.4-20.1,60.2-48.4,71.6C33,155.5,13.7,120.7,17.7,84.5C22.5,35,67.5-0.9,116.2,3.7l0-0.1C66.1-1.7,17.3,32.7,6.1,82.5
	c-13.7,57,24.8,114.5,82.7,124.2c31.5,5.5,62.3-4.2,84.8-23.7v-26.1C153,177.9,122.7,189,92.7,183.5z"/>
<linearGradient id="SVGID_00000027564347245089623240000010432882896980993425_" gradientUnits="userSpaceOnUse" x1="180.3562" y1="54.2411" x2="178.3593" y2="168.6438">
	<stop  offset="0" style="stop-color:#6E8FB6"/>
	<stop  offset="2.167251e-02" style="stop-color:#6485AE"/>
	<stop  offset="8.682550e-02" style="stop-color:#4D6D9B"/>
	<stop  offset="0.1606" style="stop-color:#3B5A8C"/>
	<stop  offset="0.247" style="stop-color:#2E4D82"/>
	<stop  offset="0.3578" style="stop-color:#26457C"/>
	<stop  offset="0.5776" style="stop-color:#24437A"/>
</linearGradient>
<path style="fill:url(#SVGID_00000027564347245089623240000010432882896980993425_);" d="M148.6,93.1l37.7-38.3h23.7v79.3
	c0,0-9.7,19.7-20.8,34.8V80.3L161.7,108L148.6,93.1z"/>
<polygon class="st2" points="392.1,147.1 329.5,147.1 376.8,82.1 331.5,82.1 331.5,73.4 394.1,73.4 346.7,138.4 392.1,138.4 "/>
<path class="st2" d="M295.8,73.4v1.1v3.4v38c0,13.8-11.2,25-25,25c-13.8,0-25-11.2-25-25v-38v-3.4v-1.1H237v42.5
	c0,18.6,15.2,33.8,33.8,33.8c18.6,0,33.8-15.2,33.8-33.8V73.4H295.8z"/>
<polygon class="st2" points="487.6,73.4 461.7,99.4 435.8,73.4 423.5,73.4 457.3,107.4 457.3,147.1 457.4,147.1 466.1,147.1 
	466.1,147.1 466.1,107.4 500,73.4 "/>
</svg>
